<?xml version="1.0" encoding="UTF-8"?><svg id="uuid-312a34e3-27c1-4779-a4c5-18383ceec250" xmlns="http://www.w3.org/2000/svg" xmlns:xlink="http://www.w3.org/1999/xlink" viewBox="0 0 500 500"><defs><linearGradient id="uuid-63368c13-97c2-48ca-852a-fcb7cb5e05e0" x1="249.84" y1="-104.39" x2="249.84" y2="470.32" gradientUnits="userSpaceOnUse"><stop offset="0" stop-color="#db3700"/><stop offset=".2" stop-color="#db3700" stop-opacity=".78"/><stop offset=".59" stop-color="#db3700" stop-opacity=".36"/><stop offset=".87" stop-color="#db3700" stop-opacity=".1"/><stop offset="1" stop-color="#db3700" stop-opacity="0"/></linearGradient></defs><path d="M496.52,278.82c0,2.16,.11,4.31,.06,6.46s.36,4.34,.24,6.48-.86,4.27-1.03,6.42-.07,4.33-.29,6.46-.25,4.32-.53,6.45-.56,4.29-.89,6.41-1.12,4.19-1.51,6.31-.14,4.38-.59,6.48-1.46,4.1-1.96,6.2-.81,4.25-1.37,6.33-.73,4.29-1.34,6.35-2.06,3.88-2.73,5.93-.94,4.24-1.66,6.27-1.75,3.95-2.53,5.96-1.04,4.24-1.87,6.23-2.46,3.64-3.34,5.61-1.96,3.84-2.89,5.78-1.49,4.06-2.48,5.98-1.77,3.94-2.8,5.83-2.83,3.35-3.91,5.22-2.03,3.79-3.16,5.63-2.1,3.76-3.28,5.57-2.42,3.56-3.64,5.33-2.15,3.75-3.42,5.49-2.49,3.53-3.8,5.24-2.75,3.32-4.11,5-2.7,3.36-4.1,5-2.58,3.48-4.03,5.08-2.97,3.13-4.46,4.7-3.32,2.79-4.84,4.31-2.95,3.15-4.52,4.63-2.91,3.21-4.51,4.65-3.28,3.14-4.92,4.54c-3.15,.55-3.34-.61-6.54-.61s-3.2-.03-6.41-.03-3.2,.58-6.41,.58-3.2-.22-6.41-.22-3.2-.49-6.41-.49-3.2,.2-6.41,.2-3.2,.31-6.41,.31-3.2-.14-6.41-.14-3.2-.24-6.41-.24-3.2,.21-6.41,.21-3.2-.41-6.41-.41-3.2,.46-6.41,.46-3.2-.32-6.41-.32-3.2-.22-6.41-.22-3.2,.51-6.41,.51-3.2-.17-6.41-.17-3.2-.17-6.41-.17-3.2,.48-6.41,.48-3.2-.68-6.4-.68-3.2,.61-6.4,.61-3.2,.27-6.41,.27-3.2,.22-6.4,.22-3.2-.68-6.4-.68-3.2,.02-6.41,.02-3.2,.6-6.41,.6-3.2-.59-6.4-.59-3.2-.13-6.41-.13-3.2-.33-6.41-.33-3.2-.36-6.41-.36-3.2,.66-6.41,.66-3.2,.3-6.41,.3-3.2-.13-6.41-.13-3.2-.36-6.41-.36-3.2,.18-6.41,.18-3.2,0-6.41,0-3.2-.32-6.41-.32-3.21,.77-6.41,.77-3.2-.26-6.41-.26-3.2-.29-6.41-.29-3.21,.68-6.41,.68-3.2-.22-6.4-.22-3.2-.72-6.41-.72-3.21,1.06-6.41,1.06-3.21-.88-6.41-.88-3.21,.72-6.41,.72-3.21-1.01-6.41-1.01-3.2-.15-6.41-.15-3.21,.85-6.41,.85-3.21-.05-6.42-.05c-3.21,0-3.32,.7-6.48,.15-1.64-1.4-3.5-2.66-5.1-4.1s-2.71-3.43-4.27-4.91-2.93-3.16-4.45-4.68-3.06-3.02-4.55-4.58-3.67-2.48-5.12-4.08-2.11-3.89-3.51-5.53-2.96-3.14-4.32-4.81-3.54-2.71-4.86-4.42-1.94-3.95-3.21-5.69-3.13-3.08-4.36-4.85-2.22-3.72-3.39-5.53-1.66-4.05-2.79-5.89-2.64-3.44-3.72-5.31-2.03-3.81-3.06-5.7-1.94-3.85-2.92-5.77-1.76-3.93-2.69-5.88-2.25-3.71-3.13-5.68-1.64-3.99-2.47-5.98-1.56-4.02-2.33-6.04-1.18-4.15-1.9-6.19-1.25-4.11-1.92-6.17-1.95-3.9-2.57-5.97-.95-4.21-1.5-6.3-1.35-4.1-1.85-6.2-.57-4.29-1.02-6.4-.6-4.26-.99-6.39-1.39-4.13-1.73-6.26-.45-4.29-.72-6.43-.8-4.25-1.02-6.4-.85-4.26-1.02-6.41,.44-4.35,.33-6.51-.5-4.29-.55-6.45,.63-4.31,.63-6.47-.98-4.33-.92-6.48,.14-4.33,.25-6.47,.8-4.28,.97-6.42,.39-4.29,.62-6.43,.83-4.24,1.1-6.37-.17-4.38,.17-6.5,.71-4.26,1.1-6.38,.5-4.31,.95-6.41,1.26-4.15,1.76-6.24,.8-4.26,1.35-6.34,1.61-4.04,2.22-6.1,1.8-3.95,2.47-6,.57-4.36,1.29-6.39,2.05-3.84,2.82-5.85,.55-4.43,1.37-6.42,2.5-3.63,3.38-5.59,1.56-4.03,2.49-5.97,1.89-3.88,2.87-5.8,2.56-3.52,3.59-5.41,1.64-4.01,2.72-5.88,2.05-3.8,3.18-5.63,2.52-3.51,3.69-5.31,2.16-3.74,3.38-5.51,2.59-3.45,3.86-5.19,1.85-4.01,3.16-5.72,2.84-3.27,4.2-4.94,3.39-2.79,4.79-4.43,2.65-3.4,4.1-5,3.25-2.85,4.74-4.41,2.65-3.43,4.17-4.95,3.12-2.97,4.68-4.45,3.34-2.72,4.94-4.17,2.87-3.26,4.51-4.66,3.63-2.37,5.3-3.73,3.4-2.63,5.11-3.95,3.16-2.96,4.9-4.23,3.52-2.49,5.29-3.71,3.84-1.99,5.65-3.17,3.71-2.16,5.55-3.28,3.26-2.93,5.13-4.01,3.85-1.94,5.74-2.97,3.59-2.42,5.51-3.4,3.96-1.71,5.91-2.64,3.93-1.76,5.9-2.64,4.12-1.32,6.11-2.14,3.72-2.28,5.74-3.06,4.08-1.39,6.12-2.11,4.05-1.47,6.11-2.13,4.04-1.55,6.1-2.16,4.09-1.4,6.18-1.96,4.22-.93,6.32-1.43,4.3-.54,6.41-.99,4.2-.96,6.32-1.35c2.11-.39,4.3-.35,6.44-.69s4.18-1.18,6.32-1.46,4.36,.24,6.51,.01,4.26-.53,6.42-.7,4.29-.22,6.44-.33,4.29-.17,6.45-.23,4.29-.67,6.45-.67,4.33-.56,6.48-.5,4.32,.3,6.47,.41,4.29,.65,6.43,.82,4.32,.22,6.46,.44,4.35,.05,6.48,.33,4.15,1.5,6.27,1.84,4.28,.52,6.4,.91,4.26,.67,6.37,1.12,4.3,.55,6.4,1.05,4.14,1.27,6.22,1.82,4.02,1.63,6.08,2.24,4.02,1.55,6.07,2.21,4.33,.64,6.36,1.36,4.16,1.2,6.17,1.97,3.88,1.92,5.87,2.75,4.01,1.59,5.98,2.47,3.82,2.02,5.76,2.94,3.89,1.86,5.81,2.84,4.09,1.51,5.98,2.53,3.36,2.83,5.22,3.91,3.8,2.03,5.63,3.15,3.43,2.62,5.23,3.79,3.65,2.27,5.42,3.5,4.01,1.8,5.75,3.06,3.15,2.98,4.86,4.3,3.9,2.02,5.57,3.38,3.03,3.11,4.67,4.51,3.38,2.68,4.99,4.13,3.2,2.9,4.76,4.38,3.15,2.95,4.67,4.48,2.78,3.31,4.27,4.87,3.13,2.98,4.57,4.58,2.6,3.45,4,5.09,3.19,2.95,4.55,4.63,2.45,3.57,3.76,5.27,2.53,3.49,3.8,5.23,2.08,3.8,3.3,5.57,2.73,3.35,3.9,5.16,2.66,3.42,3.79,5.25,2.32,3.64,3.4,5.51,1.52,4.09,2.55,5.98,2.21,3.7,3.19,5.62,2.32,3.66,3.25,5.6,1.18,4.2,2.06,6.17,1.89,3.87,2.71,5.86,1.17,4.16,1.94,6.17,1.89,3.88,2.61,5.91,1.87,3.91,2.53,5.96,1.71,3.99,2.33,6.06-.16,4.51,.4,6.6,1.36,4.08,1.86,6.18,1.87,3.99,2.31,6.1,0,4.39,.38,6.51,1.22,4.15,1.55,6.28,.46,4.28,.74,6.42,.43,4.28,.65,6.43,.12,4.3,.29,6.45,1.29,4.23,1.4,6.38-.86,4.34-.81,6.5,.38,4.29,.38,6.45Z" fill="url(#uuid-63368c13-97c2-48ca-852a-fcb7cb5e05e0)"/><path d="M359.19,466.26c-3.5,0-3.5-.04-7-.04s-3.5,.24-7,.24-3.5,.67-7,.67-3.5-.62-7-.62-3.5,.49-7,.49-3.5-.04-7-.04-3.5-.06-7-.06-3.5-.63-7-.63-3.5,.6-7,.6-3.5,.27-7,.27-3.5-.64-7-.64-3.5,.43-7,.43-3.5-.3-7-.29-3.5,.06-7,.06-3.5-.48-7-.48-3.5,.88-7,.88-3.5-.71-7-.71-3.5,0-7,0-3.5-.07-7-.07-3.5,.46-7,.46-3.5,.33-7,.33-3.5-.51-7.01-.51-3.5-.02-7-.02-3.5,.32-7,.32-3.5-.64-7-.64-3.5,.33-7,.33-3.5,.18-7.01,.18-3.5,.02-7,.02-3.5,.05-7.01,.05-3.51,.27-7.01,.27-3.51-.39-7.01-.39c-2.28,0-4.63,.06-6.69-.61s-4.19-1.87-5.97-3.16-3.47-2.96-4.77-4.76-1.76-4.07-2.45-6.2-1.56-4.18-1.56-6.46c0-3.51,.15-3.51,.15-7.02s.21-3.51,.21-7.02,.22-3.51,.22-7.02-.69-3.51-.69-7.02,.46-3.51,.46-7.02-.35-3.51-.35-7.02,.18-3.51,.18-7.02,.3-3.51,.3-7.02-.68-3.51-.68-7.02,.79-3.51,.79-7.02-.48-3.51-.48-7.02-.08-3.51-.08-7.02,.39-3.51,.39-7.03,.27-3.51,.27-7.02-.37-3.51-.37-7.02,.07-3.51,.07-7.02-.54-3.51-.54-7.02,.3-3.51,.3-7.02-.19-3.51-.19-7.02,.35-3.51,.35-7.02-.05-3.51-.05-7.02-.28-3.51-.28-7.02,.18-3.51,.18-7.02,.12-3.51,.12-7.02,.07-3.51,.07-7.03-.06-3.51-.06-7.02-.27-3.51-.27-7.03,.52-3.51,.52-7.02-.72-3.51-.72-7.02,.54-3.51,.54-7.02-.07-3.51-.07-7.02,0-3.51,0-7.02,.06-3.51,.06-7.02,.21-3.51,.21-7.03,.03-3.51,.03-7.02-.18-3.51-.18-7.03-.13-3.51-.13-7.02,.31-3.51,.31-7.03,0-3.51,0-7.02-.78-3.51-.78-7.03,.2-3.51,.2-7.02,.34-3.51,.34-7.03,.26-3.51,.26-7.03,.06-3.51,.06-7.03-.73-3.51-.73-7.03,.13-3.51,.13-7.03,.55-3.51,.55-7.03-.66-3.51-.66-7.02,.05-3.51,.05-7.03,.12-3.51,.12-7.03-.23-3.51-.23-7.03,.14-3.51,.14-7.03,.17-3.51,.17-7.03-.2-3.52-.2-7.03,.04-3.52,.04-7.04,0-3.52,0-7.04c0-2.28,.79-4.41,1.46-6.47s1.12-4.46,2.42-6.23,3.13-3.28,4.92-4.58,3.81-2.38,5.94-3.08,4.33-.73,6.62-.73c3.5,0,3.5-.51,7-.51s3.5-.02,7-.02,3.5,.03,7,.03,3.5,.48,7,.48,3.5-.51,7-.51,3.5,.92,7,.92,3.5-.07,7-.07,3.5-.48,7-.48,3.5-.16,7-.16,3.5,.39,7,.39,3.5,.2,7,.2,3.5-.11,7-.11,3.5-.46,7-.46,3.5,.11,7,.11,3.5,.03,7,.03,3.5,.36,7,.36,3.5-.32,7-.32,3.5-.4,7-.4,3.5,.55,7,.55,3.5,.01,7,.01,3.5-.53,7-.53,3.5,.14,7.01,.14,3.5,.29,7,.29,3.5-.37,7-.37,3.5,.05,7,.05,3.5,.43,7,.43,3.5,.17,7.01,.17,3.5-.66,7-.66,3.5,.79,7.01,.79,3.51-.83,7.01-.83,3.51,.86,7.01,.86c2.28,0,4.44,.06,6.5,.72s4.11,1.65,5.89,2.94,3.12,3.04,4.43,4.83,2.87,3.46,3.57,5.59,.76,4.34,.76,6.62c0,3.51,.45,3.51,.45,7.02s-.02,3.51-.02,7.02-.47,3.51-.47,7.02,.02,3.51,.02,7.02-.38,3.51-.38,7.02,.73,3.51,.73,7.02-.44,3.51-.44,7.02,.11,3.51,.11,7.02-.41,3.51-.41,7.02-.02,3.51-.02,7.02,.54,3.51,.54,7.02-.49,3.51-.49,7.02,.85,3.51,.85,7.03,.01,3.51,.01,7.02-.18,3.51-.18,7.02-.51,3.51-.51,7.02,.07,3.51,.07,7.02,.16,3.51,.16,7.02-.24,3.51-.24,7.02-.16,3.51-.16,7.02,.27,3.51,.27,7.02-.12,3.51-.12,7.02,.68,3.51,.68,7.02-.49,3.51-.49,7.02,.35,3.51,.35,7.03-.21,3.51-.21,7.02-.47,3.51-.47,7.03,.56,3.51,.56,7.02-.22,3.51-.22,7.02,0,3.51,0,7.02,.11,3.51,.11,7.02,.04,3.51,.04,7.02-.1,3.51-.1,7.02,.04,3.51,.04,7.03-.43,3.51-.43,7.02,.51,3.51,.51,7.03-.29,3.51-.29,7.02-.08,3.51-.08,7.03-.16,3.51-.16,7.02,.62,3.51,.62,7.03-.25,3.51-.25,7.02,.4,3.51,.4,7.03-.06,3.51-.06,7.03,0,3.51,0,7.03,.15,3.51,.15,7.03-.67,3.51-.67,7.03,.3,3.51,.3,7.03-.38,3.51-.38,7.02,.7,3.51,.7,7.03-.34,3.51-.34,7.03-.49,3.51-.49,7.03,.66,3.51,.66,7.03-.21,3.51-.21,7.03-.39,3.52-.39,7.03,.79,3.52,.79,7.04-.45,3.52-.45,7.04c0,2.28-.41,4.46-1.08,6.52s-1.58,4.19-2.88,5.97-2.96,3.33-4.75,4.63-3.82,2.15-5.95,2.85-4.21,.79-6.49,.79Z" fill="#fff"/><path d="M338.19,469.77c-1.98,0-3.04-.19-3.96-.35-.81-.14-1.52-.27-3.03-.27s-2.29,.1-3.13,.22c-.91,.13-1.93,.27-3.87,.27-1.77,0-2.65-.01-3.53-.02-.87-.01-1.73-.02-3.47-.02s-2.66-.02-3.55-.03c-.86-.02-1.73-.03-3.45-.03-1.99,0-3.04-.19-3.97-.36-.81-.15-1.51-.27-3.03-.27s-2.23,.12-3.05,.26c-.92,.16-1.97,.34-3.95,.34-1.65,0-2.45,.06-3.29,.13-.91,.07-1.85,.14-3.7,.14-1.99,0-3.04-.19-3.98-.36-.81-.15-1.52-.28-3.03-.28-1.59,0-2.32,.09-3.18,.2-.9,.11-1.91,.23-3.82,.23s-2.81-.08-3.72-.16c-.84-.07-1.64-.14-3.28-.14-1.73,0-2.59,.01-3.46,.03-.89,.02-1.77,.03-3.55,.03-1.93,0-2.96-.14-3.86-.27-.84-.12-1.57-.22-3.14-.22-1.42,0-2.06,.16-2.86,.36-.97,.24-2.07,.52-4.15,.52s-3.08-.22-4.03-.41c-.8-.16-1.49-.3-2.98-.3h-7c-1.78,0-2.66-.02-3.55-.04-.86-.02-1.73-.03-3.45-.03-1.58,0-2.31,.1-3.16,.21-.9,.12-1.92,.25-3.85,.25-1.62,0-2.41,.08-3.25,.16-.92,.09-1.88,.18-3.75,.18s-2.97-.15-3.88-.28c-.84-.12-1.56-.23-3.12-.23-1.76,0-2.64,0-3.52-.01-.87,0-1.74-.01-3.48-.01-1.63,0-2.42,.07-3.26,.15-.92,.08-1.87,.17-3.74,.17-1.99,0-3.05-.19-3.98-.37-.81-.15-1.51-.28-3.02-.28-1.63,0-2.42,.07-3.25,.15-.92,.09-1.87,.18-3.75,.18-1.68,0-2.5,.04-3.37,.08-.89,.04-1.82,.09-3.64,.09s-2.62,0-3.49,0c-.88,0-1.76,0-3.51,0s-2.6,.01-3.46,.03c-.89,.01-1.77,.03-3.54,.03-1.65,0-2.45,.06-3.3,.13-.91,.07-1.86,.14-3.71,.14s-2.87-.11-3.8-.21c-.83-.09-1.61-.18-3.21-.18h-.48c-2.32,0-4.71,0-7.03-.74-2.22-.72-4.48-1.91-6.71-3.54-2.04-1.49-3.89-3.33-5.36-5.34-1.28-1.76-1.88-3.79-2.41-5.59-.13-.46-.27-.91-.41-1.36-.11-.35-.23-.69-.35-1.04-.63-1.83-1.33-3.91-1.33-6.23,0-1.81,.04-2.73,.08-3.62,.04-.87,.07-1.7,.07-3.4,0-1.83,.06-2.77,.11-3.67,.05-.86,.1-1.68,.1-3.35,0-1.84,.06-2.77,.11-3.67,.05-.86,.1-1.67,.1-3.35,0-1.5-.14-2.2-.29-3-.18-.94-.39-2.01-.39-4.02s.13-2.95,.25-3.86c.11-.85,.21-1.58,.21-3.17s-.08-2.41-.16-3.25c-.09-.93-.19-1.89-.19-3.77s.05-2.75,.09-3.65c.04-.87,.09-1.69,.09-3.38,0-1.87,.08-2.82,.16-3.74,.07-.84,.14-1.64,.14-3.29,0-1.5-.13-2.2-.29-3.01-.18-.94-.39-2-.39-4.01s.24-3.14,.46-4.09c.18-.82,.33-1.47,.33-2.93,0-1.58-.1-2.31-.21-3.16-.12-.91-.26-1.93-.26-3.87,0-1.73-.02-2.59-.04-3.45-.02-.89-.04-1.79-.04-3.57,0-1.9,.11-2.87,.21-3.81,.09-.83,.18-1.61,.18-3.22,0-1.86,.07-2.8,.14-3.71,.06-.85,.13-1.65,.13-3.31s-.08-2.4-.17-3.23c-.1-.93-.2-1.89-.2-3.79,0-1.78,.02-2.67,.03-3.56,.02-.87,.03-1.73,.03-3.46,0-1.55-.11-2.28-.24-3.11-.14-.92-.3-1.96-.3-3.91s.08-2.82,.16-3.74c.07-.84,.14-1.64,.14-3.29s-.04-2.5-.09-3.37c-.05-.9-.1-1.83-.1-3.66s.1-2.85,.19-3.78c.08-.83,.16-1.62,.16-3.25,0-1.74-.01-2.6-.03-3.47-.01-.89-.03-1.78-.03-3.55,0-1.65-.06-2.45-.13-3.3-.07-.92-.15-1.86-.15-3.72s.05-2.75,.1-3.65c.05-.87,.09-1.69,.09-3.37,0-1.8,.03-2.7,.06-3.6,.03-.86,.06-1.71,.06-3.42s.02-2.67,.03-3.56c.02-.87,.03-1.73,.03-3.46s-.02-2.6-.03-3.47c-.02-.89-.03-1.78-.03-3.56,0-1.65-.06-2.46-.13-3.31-.07-.91-.14-1.86-.14-3.72,0-1.95,.15-2.99,.29-3.9,.12-.84,.23-1.56,.23-3.12s-.14-2.18-.3-2.98c-.19-.95-.41-2.02-.41-4.04s.16-3,.3-3.91c.13-.83,.24-1.56,.24-3.11,0-1.73-.02-2.59-.03-3.46-.02-.89-.04-1.78-.04-3.57v-7.02c0-1.78,.03-2.67,.04-3.56,.02-.87,.03-1.73,.03-3.46,0-1.84,.06-2.77,.11-3.67,.05-.86,.1-1.68,.1-3.35,0-1.77,0-2.65,.02-3.54,0-.87,.02-1.74,.02-3.49s-.04-2.51-.09-3.38c-.05-.9-.09-1.83-.09-3.65,0-1.71-.03-2.53-.07-3.41-.03-.89-.07-1.81-.07-3.61s.08-2.83,.17-3.75c.08-.84,.15-1.64,.15-3.28v-7.02c0-1.46-.14-2.11-.32-2.94-.21-.96-.46-2.04-.46-4.09,0-1.83,.05-2.76,.1-3.66,.05-.87,.09-1.68,.09-3.37,0-1.89,.09-2.84,.18-3.77,.08-.84,.16-1.63,.16-3.26,0-1.86,.07-2.8,.14-3.71,.06-.85,.12-1.66,.12-3.32,0-1.78,.01-2.67,.03-3.56,.01-.87,.03-1.74,.03-3.47,0-1.48-.14-2.17-.31-2.97-.2-.95-.42-2.02-.42-4.05,0-1.81,.03-2.71,.07-3.61,.03-.85,.06-1.71,.06-3.42,0-1.96,.16-3.01,.31-3.93,.13-.83,.24-1.55,.24-3.1s-.13-2.21-.28-3.02c-.17-.94-.37-2-.37-4,0-1.77,.01-2.66,.02-3.55,.01-.87,.02-1.74,.02-3.48s.03-2.7,.06-3.61c.03-.86,.06-1.71,.06-3.42s-.05-2.48-.11-3.34c-.06-.91-.12-1.84-.12-3.69s.04-2.73,.07-3.62c.03-.88,.07-1.71,.07-3.41,0-1.82,.05-2.75,.09-3.64,.04-.87,.08-1.69,.08-3.38s-.05-2.5-.1-3.37c-.05-.9-.1-1.83-.1-3.67s0-2.66,.02-3.55c0-.87,.02-1.75,.02-3.49v-7.04c0-2.46,.73-4.67,1.37-6.61l.22-.67c.16-.48,.3-.97,.44-1.46,.51-1.77,1.1-3.79,2.36-5.52,1.59-2.19,3.78-3.91,5.51-5.17,2.09-1.52,4.4-2.71,6.68-3.46,2.43-.79,5.01-.86,7.44-.86,1.56,0,2.28-.11,3.12-.23,.91-.13,1.94-.28,3.88-.28,1.74,0,2.61,0,3.48-.01,.88,0,1.76-.01,3.52-.01s2.64,0,3.52,.01c.87,0,1.74,.01,3.48,.01,1.93,0,2.95,.14,3.86,.26,.84,.11,1.57,.21,3.14,.21s2.28-.11,3.11-.23c.91-.13,1.94-.29,3.89-.29,2.09,0,3.2,.29,4.18,.55,.79,.21,1.42,.37,2.83,.37,1.72,0,2.58-.02,3.44-.04,.89-.02,1.78-.04,3.55-.04,1.57,0,2.29-.1,3.14-.22,.9-.12,1.93-.27,3.86-.27,1.69,0,2.51-.04,3.38-.08,.89-.04,1.81-.08,3.62-.08s2.86,.11,3.79,.21c.82,.09,1.6,.18,3.21,.18,1.83,0,2.76,.05,3.65,.1,.86,.05,1.67,.1,3.35,.1s2.56-.03,3.41-.06c.9-.03,1.79-.06,3.59-.06,1.58,0,2.31-.1,3.15-.21,.9-.12,1.92-.25,3.85-.25,1.79,0,2.69,.03,3.58,.06,.85,.03,1.71,.05,3.42,.05s2.64,0,3.52,.01c.87,0,1.74,.01,3.48,.01,1.89,0,2.85,.1,3.77,.2,.83,.09,1.61,.17,3.23,.17s2.42-.07,3.26-.15c.92-.08,1.87-.17,3.74-.17,1.6,0,2.38-.09,3.2-.18,.89-.1,1.9-.22,3.8-.22s3,.17,3.92,.31c.83,.13,1.54,.25,3.09,.25,1.75,0,2.63,0,3.51,0,.87,0,1.75,0,3.49,0,1.55,0,2.27-.11,3.11-.23,.91-.14,1.95-.29,3.9-.29,1.8,0,2.72,.04,3.61,.07,.87,.04,1.7,.07,3.4,.07,1.86,0,2.81,.08,3.72,.16,.84,.07,1.64,.14,3.28,.14s2.39-.08,3.22-.17c.93-.1,1.89-.2,3.78-.2,1.77,0,2.65,.01,3.54,.02,.87,.01,1.73,.02,3.47,.02,1.91,0,2.93,.13,3.83,.24,.85,.11,1.59,.2,3.18,.2,1.81,0,2.74,.04,3.63,.09,.87,.04,1.69,.08,3.38,.08,1.5,0,2.2-.13,3.01-.29,.94-.18,2-.38,3.99-.38s3.13,.25,4.09,.46c.82,.18,1.46,.33,2.92,.33s2.08-.15,2.9-.34c.96-.23,2.05-.49,4.12-.49s3.17,.27,4.14,.5c.81,.2,1.44,.35,2.88,.35,2.47,0,4.88,.07,7.31,.85,2.48,.81,4.71,1.92,6.63,3.32,2.09,1.52,3.56,3.43,5.01,5.42,.28,.38,.57,.76,.86,1.14,1.13,1.46,2.4,3.11,3.08,5.2,.78,2.42,.89,5,.89,7.44,0,1.59,.09,2.32,.2,3.18,.11,.9,.24,1.92,.24,3.85,0,1.76,0,2.65-.01,3.53,0,.87-.01,1.75-.01,3.49,0,1.93-.14,2.96-.26,3.86-.11,.85-.21,1.58-.21,3.16,0,1.75,0,2.62,.01,3.49,0,.88,.01,1.76,.01,3.53,0,1.9-.1,2.86-.21,3.8-.09,.83-.17,1.61-.17,3.23,0,1.48,.14,2.17,.31,2.97,.2,.95,.42,2.02,.42,4.05,0,1.92-.13,2.94-.24,3.84-.11,.85-.2,1.59-.2,3.18,0,1.71,.03,2.57,.05,3.43,.03,.9,.06,1.8,.06,3.59,0,1.91-.12,2.93-.22,3.82-.1,.82-.19,1.6-.19,3.2,0,1.76,0,2.64,0,3.53,0,.87,0,1.75,0,3.5,0,1.55,.11,2.27,.24,3.11,.14,.92,.3,1.96,.3,3.92s-.14,2.97-.27,3.88c-.12,.84-.22,1.57-.22,3.15,0,1.44,.15,2.08,.35,2.89,.23,.97,.5,2.06,.5,4.14,0,1.75,0,2.63,0,3.5,0,.88,0,1.76,0,3.52s-.05,2.75-.09,3.65c-.04,.87-.09,1.69-.09,3.38,0,1.95-.15,2.98-.28,3.89-.12,.84-.23,1.57-.23,3.13,0,1.73,.02,2.6,.03,3.46,.02,.89,.03,1.78,.03,3.56s.04,2.52,.08,3.39c.04,.89,.08,1.82,.08,3.63s-.06,2.78-.12,3.69c-.06,.86-.11,1.67-.11,3.33,0,1.82-.04,2.74-.08,3.63-.04,.87-.08,1.7-.08,3.39s.06,2.46,.13,3.31c.07,.91,.14,1.86,.14,3.71s-.03,2.7-.06,3.6c-.03,.86-.06,1.71-.06,3.42,0,1.5,.14,2.2,.29,3.01,.18,.94,.39,2.01,.39,4.02s-.14,2.97-.27,3.88c-.12,.85-.22,1.58-.22,3.15s.08,2.41,.16,3.25c.09,.93,.19,1.89,.19,3.78s-.05,2.77-.11,3.67c-.05,.86-.1,1.68-.1,3.36,0,1.93-.14,2.96-.26,3.86-.11,.85-.21,1.58-.21,3.16s.12,2.26,.25,3.09c.15,.92,.31,1.96,.31,3.93,0,1.84-.06,2.77-.11,3.68-.05,.86-.1,1.67-.1,3.34v7.02c0,1.72,.02,2.57,.04,3.43,.03,.9,.05,1.8,.05,3.59s0,2.61,.02,3.48c0,.88,.02,1.77,.02,3.54s-.03,2.69-.05,3.59c-.02,.86-.05,1.72-.05,3.44s0,2.61,.02,3.48c.01,.89,.02,1.77,.02,3.54,0,1.92-.12,2.93-.23,3.83-.1,.82-.2,1.59-.2,3.19s.11,2.29,.23,3.13c.13,.91,.29,1.95,.29,3.9s-.08,2.81-.15,3.73c-.07,.85-.13,1.65-.13,3.3,0,1.79-.02,2.68-.04,3.58-.02,.86-.04,1.72-.04,3.45,0,1.82-.04,2.74-.08,3.63-.04,.87-.08,1.7-.08,3.39,0,1.52,.13,2.23,.27,3.05,.17,.93,.35,1.99,.35,3.98,0,1.85-.07,2.79-.13,3.7-.06,.86-.12,1.66-.12,3.33s.09,2.38,.19,3.21c.1,.89,.22,1.91,.22,3.82,0,1.78-.02,2.67-.03,3.56-.02,.87-.03,1.73-.03,3.47v7.03c0,1.7,.04,2.53,.08,3.4,.04,.89,.08,1.81,.08,3.62,0,2.01-.2,3.07-.38,4.01-.16,.81-.29,1.51-.29,3.01,0,1.64,.07,2.44,.14,3.29,.08,.92,.16,1.87,.16,3.74s-.11,2.87-.21,3.8c-.09,.83-.18,1.61-.18,3.22,0,1.5,.14,2.19,.3,3,.19,.94,.4,2.01,.4,4.03,0,1.88-.09,2.84-.18,3.77-.08,.84-.16,1.63-.16,3.26,0,1.94-.14,2.97-.27,3.88-.12,.85-.22,1.58-.22,3.15s.13,2.21,.28,3.03c.17,.94,.37,2,.37,4,0,1.83-.06,2.77-.11,3.67-.05,.86-.1,1.68-.1,3.36,0,1.9-.11,2.87-.21,3.81-.09,.83-.18,1.61-.18,3.22,0,1.46,.15,2.11,.33,2.93,.22,.96,.46,2.05,.46,4.1,0,1.93-.13,2.95-.25,3.86-.11,.85-.2,1.59-.2,3.18,0,2.4-.41,4.87-1.21,7.34-.9,2.76-1.93,4.89-3.25,6.71-1.37,1.88-3.16,3.64-5.33,5.22-1.78,1.3-3.91,2.32-6.69,3.22-2.49,.81-4.98,.92-7.31,.92-1.76,0-2.65,0-3.53-.02-.87,0-1.74-.02-3.47-.02s-2.47,.05-3.32,.11c-.9,.06-1.84,.12-3.68,.12-1.5,0-2.19,.13-3,.29-.94,.18-2,.38-4,.38Zm-7-5.93c1.98,0,3.04,.19,3.96,.35,.81,.14,1.52,.27,3.03,.27s2.19-.13,3-.29c.94-.18,2-.38,4-.38,1.66,0,2.47-.05,3.32-.11,.9-.06,1.84-.12,3.68-.12s2.65,0,3.53,.02c.87,0,1.73,.02,3.47,.02,1.89,0,3.88-.08,5.67-.66,2.24-.73,3.89-1.51,5.21-2.47,1.72-1.25,3.12-2.62,4.17-4.05,.99-1.35,1.78-3.02,2.5-5.23,.64-1.97,.95-3.84,.95-5.7s.13-2.95,.25-3.86c.11-.85,.2-1.59,.2-3.18,0-1.46-.15-2.11-.33-2.93-.22-.96-.46-2.05-.46-4.1,0-1.9,.11-2.87,.21-3.81,.09-.83,.18-1.61,.18-3.23,0-1.83,.06-2.77,.11-3.67,.05-.86,.1-1.68,.1-3.36,0-1.51-.13-2.21-.28-3.03-.17-.94-.37-2-.37-4s.14-2.97,.27-3.88c.12-.85,.22-1.58,.22-3.15,0-1.88,.09-2.84,.18-3.77,.08-.84,.16-1.63,.16-3.26,0-1.5-.14-2.19-.3-3-.19-.94-.4-2.01-.4-4.03,0-1.9,.11-2.87,.21-3.8,.09-.83,.18-1.61,.18-3.22s-.07-2.44-.14-3.29c-.08-.92-.16-1.87-.16-3.74,0-2.01,.2-3.07,.38-4.01,.16-.81,.29-1.51,.29-3.01,0-1.7-.04-2.53-.07-3.4-.04-.89-.08-1.81-.08-3.62v-7.03c0-1.78,.01-2.67,.03-3.56,.02-.87,.03-1.73,.03-3.47,0-1.6-.09-2.38-.19-3.21-.1-.89-.22-1.91-.22-3.82s.07-2.79,.13-3.7c.06-.86,.12-1.66,.12-3.33,0-1.52-.13-2.23-.27-3.05-.17-.93-.35-1.99-.35-3.98,0-1.82,.04-2.74,.08-3.63,.04-.87,.08-1.7,.08-3.39,0-1.79,.02-2.68,.04-3.58,.02-.86,.04-1.72,.04-3.45,0-1.86,.08-2.81,.15-3.73,.07-.85,.13-1.65,.13-3.3,0-1.56-.11-2.29-.23-3.13-.13-.91-.29-1.95-.29-3.9s.12-2.93,.23-3.83c.1-.82,.2-1.59,.2-3.19,0-1.74,0-2.61-.02-3.48-.01-.89-.02-1.77-.02-3.54s.03-2.69,.05-3.59c.02-.86,.05-1.72,.05-3.43s0-2.61-.02-3.48c0-.88-.02-1.77-.02-3.54s-.03-2.57-.05-3.43c-.03-.9-.05-1.8-.05-3.59v-7.02c0-1.84,.07-2.77,.12-3.68,.05-.86,.1-1.67,.1-3.34,0-1.54-.12-2.26-.25-3.09-.15-.92-.31-1.96-.31-3.93s.14-2.96,.26-3.86c.11-.85,.21-1.58,.21-3.16,0-1.83,.05-2.77,.11-3.67,.05-.86,.1-1.68,.1-3.36s-.08-2.41-.16-3.25c-.09-.93-.19-1.89-.19-3.78s.14-2.97,.27-3.88c.12-.85,.22-1.58,.22-3.15s-.14-2.2-.29-3c-.18-.94-.39-2.01-.39-4.02,0-1.8,.03-2.7,.06-3.6,.03-.86,.06-1.71,.06-3.42s-.06-2.46-.13-3.31c-.07-.91-.14-1.86-.14-3.71s.04-2.74,.08-3.64c.04-.87,.08-1.69,.08-3.39,0-1.85,.06-2.78,.12-3.69,.06-.86,.11-1.67,.11-3.33s-.04-2.52-.08-3.39c-.04-.89-.08-1.82-.08-3.63s-.02-2.6-.03-3.46c-.02-.89-.03-1.78-.03-3.56,0-1.95,.15-2.98,.28-3.89,.12-.84,.23-1.57,.23-3.13,0-1.82,.05-2.75,.09-3.65,.04-.87,.09-1.69,.09-3.38s0-2.63,0-3.5c0-.88,0-1.76,0-3.52,0-1.44-.15-2.08-.35-2.89-.23-.97-.5-2.06-.5-4.14,0-1.94,.14-2.97,.27-3.88,.12-.84,.22-1.57,.22-3.14s-.11-2.27-.24-3.11c-.14-.92-.3-1.96-.3-3.92,0-1.76,0-2.64,0-3.53,0-.87,0-1.75,0-3.5,0-1.91,.12-2.93,.22-3.82,.1-.82,.19-1.6,.19-3.2,0-1.71-.03-2.57-.05-3.43-.03-.9-.06-1.8-.06-3.6,0-1.92,.13-2.94,.24-3.84,.11-.85,.2-1.59,.2-3.18,0-1.48-.14-2.17-.31-2.97-.2-.95-.42-2.02-.42-4.05,0-1.9,.1-2.87,.21-3.8,.09-.83,.17-1.61,.17-3.23,0-1.75,0-2.62-.01-3.49,0-.88-.01-1.76-.01-3.53,0-1.93,.14-2.96,.26-3.86,.11-.85,.21-1.58,.21-3.16,0-1.76,0-2.64,.01-3.53,0-.87,.01-1.75,.01-3.49,0-1.59-.09-2.32-.2-3.18-.11-.9-.24-1.92-.24-3.84,0-2.31-.11-4.18-.63-5.8-.39-1.21-1.29-2.37-2.23-3.59-.33-.42-.65-.84-.96-1.26-1.23-1.69-2.37-3.18-3.84-4.25-1.49-1.08-3.17-1.92-5.15-2.56-1.69-.55-3.57-.59-5.68-.59s-3.17-.27-4.14-.5c-.81-.2-1.44-.35-2.88-.35s-2.08,.15-2.9,.34c-.96,.23-2.05,.49-4.12,.49s-3.13-.25-4.09-.46c-.82-.18-1.46-.33-2.92-.33s-2.2,.13-3.01,.29c-.94,.18-2,.38-4,.38-1.81,0-2.74-.04-3.63-.09-.87-.04-1.69-.08-3.38-.08-1.91,0-2.93-.13-3.83-.24-.85-.11-1.59-.2-3.18-.2-1.77,0-2.65-.01-3.54-.02-.87-.01-1.73-.02-3.47-.02-1.61,0-2.39,.08-3.22,.17-.93,.1-1.89,.2-3.78,.2s-2.81-.08-3.72-.16c-.84-.07-1.64-.14-3.28-.14-1.81,0-2.72-.04-3.61-.07-.87-.04-1.7-.07-3.4-.07-1.55,0-2.27,.11-3.11,.23-.91,.14-1.95,.29-3.9,.29-1.75,0-2.63,0-3.51,0-.87,0-1.75,0-3.49,0-1.96,0-3-.17-3.92-.31-.83-.13-1.54-.25-3.09-.25s-2.38,.09-3.2,.18c-.89,.1-1.9,.22-3.8,.22-1.63,0-2.42,.07-3.26,.15-.92,.08-1.87,.17-3.74,.17s-2.85-.1-3.77-.2c-.83-.09-1.61-.17-3.23-.17-1.76,0-2.64,0-3.52-.01-.87,0-1.74-.01-3.48-.01s-2.69-.03-3.58-.06c-.85-.03-1.71-.05-3.42-.05-1.58,0-2.31,.1-3.15,.21-.9,.12-1.92,.25-3.85,.25-1.71,0-2.56,.03-3.41,.06-.9,.03-1.79,.06-3.59,.06s-2.76-.05-3.65-.1c-.86-.05-1.67-.1-3.35-.1-1.9,0-2.86-.11-3.79-.21-.82-.09-1.6-.18-3.21-.18-1.69,0-2.51,.04-3.38,.08-.89,.04-1.81,.08-3.62,.08-1.57,0-2.29,.1-3.14,.22-.9,.12-1.93,.27-3.86,.27-1.72,0-2.58,.02-3.44,.04-.89,.02-1.78,.04-3.55,.04-2.09,0-3.2-.29-4.18-.55-.79-.21-1.42-.37-2.83-.37-1.56,0-2.28,.11-3.11,.23-.91,.13-1.94,.29-3.89,.29s-2.95-.14-3.86-.26c-.84-.11-1.57-.21-3.14-.21-1.76,0-2.64,0-3.52-.01-.87,0-1.74-.01-3.48-.01s-2.61,0-3.48,.01c-.88,0-1.76,.01-3.52,.01-1.56,0-2.28,.11-3.12,.23-.91,.13-1.94,.28-3.88,.28-2.09,0-4.1,.05-5.8,.6-1.76,.57-3.56,1.51-5.2,2.7-1.41,1.03-3.18,2.41-4.34,4-.71,.98-1.12,2.39-1.55,3.87-.16,.54-.32,1.09-.49,1.62l-.23,.7c-.57,1.72-1.1,3.34-1.1,4.95v7.04c0,1.77-.01,2.66-.02,3.55,0,.87-.02,1.75-.02,3.49s.05,2.5,.1,3.37c.05,.9,.1,1.83,.1,3.67s-.05,2.75-.09,3.64c-.04,.87-.08,1.69-.08,3.38,0,1.81-.04,2.73-.07,3.62-.03,.88-.07,1.71-.07,3.41s.05,2.48,.11,3.34c.06,.91,.12,1.84,.12,3.69s-.03,2.7-.06,3.61c-.03,.86-.06,1.71-.06,3.42s-.01,2.66-.02,3.55c-.01,.87-.02,1.74-.02,3.48,0,1.51,.13,2.21,.28,3.02,.17,.94,.37,2,.37,4s-.16,3.01-.31,3.93c-.13,.83-.24,1.55-.24,3.1,0,1.81-.03,2.71-.07,3.61-.03,.85-.06,1.71-.06,3.42,0,1.48,.14,2.17,.31,2.97,.2,.95,.42,2.02,.42,4.05,0,1.78-.01,2.67-.03,3.56-.01,.87-.03,1.74-.03,3.47,0,1.86-.07,2.8-.14,3.71-.06,.85-.12,1.66-.12,3.32,0,1.89-.09,2.84-.18,3.77-.08,.84-.16,1.63-.16,3.26,0,1.83-.05,2.76-.1,3.66-.05,.87-.09,1.68-.09,3.36,0,1.46,.15,2.11,.33,2.94,.21,.96,.46,2.04,.46,4.09v7.02c0,1.88-.09,2.83-.18,3.75-.08,.84-.15,1.64-.15,3.28s.03,2.53,.07,3.41c.03,.89,.07,1.81,.07,3.61,0,1.69,.04,2.51,.09,3.38,.05,.9,.09,1.83,.09,3.65s0,2.65-.02,3.54c0,.87-.02,1.74-.02,3.49,0,1.84-.06,2.77-.11,3.67-.05,.86-.1,1.68-.1,3.35,0,1.78-.02,2.67-.03,3.56-.02,.87-.03,1.73-.03,3.46v7.02c0,1.73,0,2.6,.03,3.46,.02,.89,.04,1.78,.04,3.56,0,1.96-.16,3-.3,3.91-.13,.83-.24,1.56-.24,3.11s.14,2.18,.3,2.98c.19,.95,.41,2.02,.41,4.04s-.15,2.99-.29,3.9c-.12,.84-.23,1.56-.23,3.12,0,1.65,.06,2.46,.13,3.31,.07,.91,.14,1.86,.14,3.72,0,1.73,.02,2.6,.03,3.47,.02,.89,.03,1.78,.03,3.56s-.02,2.67-.03,3.56c-.02,.87-.03,1.73-.03,3.46s-.03,2.7-.06,3.6c-.03,.86-.06,1.71-.06,3.42,0,1.83-.05,2.75-.1,3.65-.05,.87-.09,1.69-.09,3.37s.06,2.45,.13,3.3c.07,.92,.15,1.86,.15,3.72,0,1.74,.01,2.6,.03,3.47,.01,.89,.03,1.78,.03,3.55,0,1.89-.1,2.85-.19,3.78-.08,.83-.16,1.62-.16,3.25s.04,2.5,.09,3.37c.05,.9,.1,1.83,.1,3.66s-.08,2.82-.16,3.74c-.07,.84-.14,1.64-.14,3.29,0,1.56,.11,2.28,.24,3.11,.14,.92,.3,1.95,.3,3.91,0,1.78-.02,2.67-.03,3.56-.02,.87-.03,1.73-.03,3.46,0,1.62,.08,2.4,.17,3.23,.1,.93,.2,1.89,.2,3.79s-.07,2.8-.14,3.71c-.06,.85-.13,1.65-.13,3.31,0,1.9-.11,2.87-.21,3.81-.09,.83-.18,1.61-.18,3.22,0,1.73,.02,2.59,.04,3.45,.02,.89,.04,1.79,.04,3.57,0,1.58,.1,2.31,.21,3.15,.12,.91,.26,1.93,.26,3.87,0,2.05-.24,3.14-.46,4.09-.18,.82-.33,1.47-.33,2.93s.13,2.2,.29,3.01c.18,.94,.39,2,.39,4.01,0,1.87-.08,2.82-.16,3.74-.07,.84-.14,1.64-.14,3.28,0,1.82-.05,2.75-.09,3.65-.04,.87-.09,1.69-.09,3.38s.08,2.41,.16,3.25c.09,.93,.19,1.89,.19,3.78s-.13,2.95-.25,3.86c-.11,.85-.21,1.58-.21,3.17,0,1.5,.14,2.2,.29,3,.18,.94,.39,2.01,.39,4.02,0,1.84-.06,2.77-.11,3.67-.05,.86-.1,1.67-.1,3.35,0,1.83-.06,2.77-.11,3.67-.05,.86-.1,1.68-.1,3.35,0,1.81-.04,2.73-.08,3.62-.04,.87-.07,1.7-.07,3.4,0,1.44,.51,2.94,1.05,4.52,.13,.38,.26,.75,.38,1.12,.16,.49,.31,.99,.46,1.49,.45,1.52,.88,2.96,1.62,3.97,1.12,1.54,2.61,3.03,4.19,4.17,1.76,1.28,3.57,2.24,5.23,2.78,1.51,.49,3.39,.5,5.38,.48h.49c1.9,0,2.87,.11,3.8,.21,.83,.09,1.61,.18,3.21,.18s2.45-.06,3.3-.13c.91-.07,1.86-.14,3.71-.14,1.73,0,2.6-.01,3.46-.03,.89-.01,1.77-.03,3.54-.03s2.61,0,3.49,0c.88,0,1.76,0,3.52,0s2.5-.04,3.37-.08c.89-.04,1.82-.09,3.64-.09,1.63,0,2.42-.07,3.25-.15,.92-.09,1.87-.18,3.75-.18,1.99,0,3.05,.19,3.98,.37,.81,.15,1.51,.28,3.02,.28,1.63,0,2.42-.07,3.26-.15,.92-.08,1.87-.17,3.74-.17,1.76,0,2.64,0,3.52,.01,.87,0,1.74,.01,3.48,.01,1.94,0,2.97,.15,3.88,.28,.84,.12,1.56,.23,3.12,.23s2.41-.08,3.25-.16c.92-.09,1.88-.18,3.75-.18,1.58,0,2.31-.1,3.16-.21,.9-.12,1.92-.25,3.85-.25,1.78,0,2.66,.02,3.55,.03,.86,.02,1.73,.03,3.45,.03h7c2.02,0,3.08,.22,4.03,.41,.8,.16,1.49,.3,2.98,.3s2.05-.16,2.86-.36c.97-.24,2.07-.52,4.15-.52,1.93,0,2.96,.14,3.86,.27,.84,.12,1.57,.22,3.14,.22,1.73,0,2.59-.01,3.46-.03,.89-.02,1.77-.03,3.55-.03,1.86,0,2.81,.08,3.72,.16,.84,.07,1.64,.14,3.28,.14s2.32-.09,3.18-.2c.9-.11,1.91-.23,3.82-.23s3.04,.19,3.98,.36c.81,.15,1.52,.28,3.03,.28,1.65,0,2.45-.06,3.29-.13,.91-.07,1.85-.14,3.7-.14,1.53,0,2.23-.12,3.05-.26,.92-.16,1.97-.34,3.95-.34s3.04,.19,3.97,.36c.81,.15,1.51,.27,3.03,.27,1.77,0,2.66,.02,3.55,.03,.86,.02,1.73,.03,3.45,.03s2.65,.01,3.53,.02c.87,.01,1.73,.02,3.47,.02,1.56,0,2.29-.1,3.13-.22,.91-.13,1.93-.27,3.87-.27Z" fill="#3c1053"/><path d="M355.35,420.85c-3.49,0-3.49-.19-6.98-.19s-3.49,.13-6.97,.13-3.49,.14-6.97,.14-3.49-.03-6.98-.03-3.49-.2-6.98-.2-3.49-.24-6.98-.24-3.49,.58-6.98,.58-3.49-.11-6.98-.11-3.49,.01-6.98,.01-3.49,.15-6.98,.15-3.49-.69-6.98-.69-3.49-.14-6.98-.14-3.49,.27-6.98,.27-3.49,.24-6.98,.24-3.49-.06-6.98-.06-3.49-.09-6.98-.09-3.49,.1-6.98,.1-3.49-.52-6.98-.52-3.49,.64-6.98,.64-3.49,.02-6.98,.02-3.49,.08-6.98,.08-3.49-.44-6.98-.44-3.49,.41-6.98,.41-3.49-.52-6.98-.52-3.49-.05-6.98-.05-3.49,0-6.98,0-3.49,.03-6.98,.03-3.49,.05-6.99,.05-3.5,.56-6.99,.56-3.5-.57-6.99-.57c-.88,0-1.32-.52-1.32-1.4,0-3.55-.34-3.55-.34-7.09s-.2-3.55-.2-7.09,.67-3.54,.67-7.09-.29-3.54-.29-7.09,.24-3.55,.24-7.09-.59-3.55-.59-7.09,.37-3.54,.37-7.09,.04-3.55,.04-7.09-.19-3.55-.19-7.09-.06-3.54-.06-7.09-.36-3.55-.36-7.09-.05-3.55-.05-7.09,.59-3.55,.59-7.09-.04-3.55-.04-7.09,.31-3.55,.31-7.09-.26-3.55-.26-7.09-.56-3.55-.56-7.09,.44-3.55,.44-7.09,.06-3.55,.06-7.09,.18-3.54,.18-7.09-.43-3.54-.43-7.09,.21-3.54,.21-7.09,.13-3.55,.13-7.09-.56-3.54-.56-7.09,.59-3.54,.59-7.09-.34-3.55-.34-7.09,.49-3.54,.49-7.09-.66-3.55-.66-7.09,.23-3.55,.23-7.09-.38-3.55-.38-7.09,.11-3.55,.11-7.09-.11-3.55-.11-7.09,.05-3.55,.05-7.09,.87-3.55,.87-7.09-.48-3.55-.48-7.09,.51-3.55,.51-7.09-.41-3.55-.41-7.09-.01-3.55-.01-7.09,.05-3.55,.05-7.1-.5-3.55-.5-7.09,.63-3.55,.63-7.09-.18-3.55-.18-7.09-.28-3.55-.28-7.09,.49-3.55,.49-7.1,.15-3.55,.15-7.09-.05-3.55-.05-7.1-.37-3.55-.37-7.1-.22-3.55-.22-7.1c0-.88,.94-1.38,1.82-1.38,3.49,0,3.49,.02,6.98,.02s3.49-.46,6.97-.46,3.49,.4,6.97,.4,3.49-.58,6.98-.58,3.49,.86,6.98,.86,3.49-.73,6.98-.73,3.49,.55,6.98,.55,3.49-.75,6.98-.75,3.49,.25,6.98,.25,3.49,.25,6.98,.25,3.49,.11,6.98,.11,3.49-.59,6.98-.59,3.49,.34,6.98,.34,3.49,.51,6.98,.51,3.49-.51,6.98-.51,3.49,.42,6.98,.42,3.49,.16,6.98,.16,3.49-.25,6.98-.25,3.49,.04,6.98,.04,3.49,.09,6.98,.09,3.49,.09,6.98,.09,3.49-.9,6.98-.9,3.49,.08,6.98,.08,3.49,.72,6.98,.72,3.49-.54,6.98-.54,3.49,.5,6.98,.5,3.49-.47,6.98-.47,3.49,.15,6.99,.15,3.5,.45,6.99,.45,3.5,0,6.99,0c.88,0,1.72,.27,1.72,1.15,0,3.55-.06,3.55-.06,7.09s.41,3.55,.41,7.09-.41,3.54-.41,7.09,.41,3.54,.41,7.09-.15,3.55-.15,7.09-.36,3.55-.36,7.09,.32,3.54,.32,7.09-.09,3.55-.09,7.09-.08,3.55-.08,7.09-.02,3.54-.02,7.09,.24,3.55,.24,7.09-.29,3.55-.29,7.09-.34,3.55-.34,7.09,.25,3.55,.25,7.09-.22,3.55-.22,7.09,.12,3.55,.12,7.09-.24,3.55-.24,7.09,.09,3.55,.09,7.09,.06,3.55,.06,7.09,.34,3.54,.34,7.09,0,3.54,0,7.09-.46,3.54-.46,7.09,.59,3.55,.59,7.09,.24,3.54,.24,7.09-.28,3.54-.28,7.09-.27,3.55-.27,7.09,.37,3.54,.37,7.09-.75,3.55-.75,7.09,.89,3.55,.89,7.09-.88,3.55-.88,7.09,.09,3.55,.09,7.09,.49,3.55,.49,7.09-.23,3.55-.23,7.09,.26,3.55,.26,7.09-.33,3.55-.33,7.09,.13,3.55,.13,7.09,.43,3.55,.43,7.09-.71,3.55-.71,7.09,.6,3.55,.6,7.1-.77,3.55-.77,7.09,.07,3.55,.07,7.09,.3,3.55,.3,7.09,.35,3.55,.35,7.09-.46,3.55-.46,7.1-.15,3.55-.15,7.09,.5,3.55,.5,7.1,.25,3.55,.25,7.1-.74,3.55-.74,7.1c0,.88-.37,1.84-1.25,1.84Z" fill="#db3700"/><path d="M261.72,56.01c-3.4,0-3.4-.1-6.8-.1s-3.4,0-6.8,0-3.4-.37-6.8-.37-3.4-.11-6.81-.11-3.41-.17-6.81-.17-3.41,.13-6.81,.13c-3.77,0-3.77,6.32,0,6.32,3.4,0,3.4-.32,6.8-.32s3.4-.28,6.8-.28,3.4-.05,6.8-.05,3.4,.45,6.81,.45,3.41,.21,6.81,.21,3.41,.06,6.81,.06c3.76,0,3.77-5.77,0-5.77Z" fill="#3c1053"/><path d="M286.47,55.82c-4.95,0-4.95-.26-9.9-.26-1.53,0-3.21,1.38-3.14,2.96,.07,1.59,1.5,2.8,3.14,2.8,4.95,0,4.95-.13,9.9-.13,1.53,0,2.62-1.08,2.55-2.66-.07-1.59-.91-2.71-2.55-2.71Z" fill="#3c1053"/><path d="M251.76,436.65c-.11-.09-.3,.11-.11,.19,.09-.02,.11-.19,.11-.19Z" fill="#fff"/><path d="M251.65,439.49c-.34,0-.69-.07-1.01-.2-1.01-.41-1.68-1.37-1.72-2.44-.04-1.08,.56-2.09,1.53-2.58,.97-.49,2.13-.37,2.97,.31,.7,.56,1.07,1.44,.98,2.33-.12,1.25-1,2.26-2.18,2.52-.19,.04-.38,.06-.57,.06Zm0-2.7l-1.54,1.92c.78,.62,1.85,.74,2.73,.29,.88-.44,1.42-1.37,1.38-2.36-.04-1-.65-1.89-1.56-2.26l-.93,2.26h.03s-.11,.2-.11,.2v-.04Zm-.57-2.55c-1.04,.23-1.85,1.1-1.96,2.12l2.48,.26-.53-2.38Z" fill="#3c1053"/><path d="M250.97,444.54s.29,.2,.31,.19c.01,0,.05,.06,.06,.05,.02-.01,.3,.23,.3,.23,0,0-.52-.71-.51-.71-.04,.03-.11,.21-.16,.25Z" fill="#fff"/><path d="M251.65,447.66c-.58,0-1.2-.2-1.77-.66l-.04-.04s0,0,0,0c-.05-.03-.1-.06-.15-.1-.34-.19-.65-.46-.88-.8-.63-.91-.61-2.08-.04-2.96,0-.01,.01-.02,.02-.03,.07-.12,.14-.24,.22-.34,.17-.23,.42-.49,.77-.7,1.15-.69,2.63-.41,3.46,.64,.03,.04,.07,.09,.1,.14l.22,.3c1.38,1.9,.58,3.19-.02,3.79-.47,.47-1.14,.77-1.87,.77Zm-1.79-.68c.74,.54,1.99,.7,3.02-.03-.91,.64-2.12,.62-3.02,.03Zm2.48-.67l.16,.27s.02-.01,.03-.02l-.19-.25Zm-2.46-3.27l.45,.45-.34-.55s-.08,.06-.11,.1Zm-.53-.59s0,0,0,0c0,0,0,0,0,0Zm0,0h0s0,0,0,0Z" fill="#3c1053"/><path d="M256.39,432.87c-1.8-1.81-4.53-2.41-7.11-2.68s-5.41-.31-7.51,1.22c-.62,.45-1.19,1.16-1.42,1.87-1.79,2-2.99,4.83-3.05,7.55-.05,2.42,1.44,4.47,2.88,6.25s3.16,3.58,5.44,4.19c2.33,.63,4.76,0,6.88-.86s4.42-2.03,5.58-4.19c1.12-2.07,.92-4.63,.69-6.93s-.69-4.72-2.4-6.43Z" fill="#fff"/><path d="M247.64,454.19c-.87,0-1.78-.1-2.7-.35-3.02-.82-5.14-3.03-6.81-5.08-1.24-1.53-3.56-4.37-3.48-7.98,.07-3.12,1.33-6.4,3.4-8.89,.45-.99,1.22-1.94,2.15-2.62,2.85-2.08,6.33-2.04,9.35-1.72,2.53,.26,6.18,.91,8.71,3.44h0c2.31,2.32,2.9,5.37,3.16,8.05,.22,2.22,.55,5.58-1,8.45-1.58,2.93-4.53,4.42-6.92,5.38-1.51,.61-3.58,1.31-5.87,1.31Zm-.8-21.49c-1.33,0-2.6,.2-3.5,.86-.24,.17-.42,.43-.45,.53-.11,.36-.3,.69-.55,.97-1.42,1.59-2.33,3.83-2.38,5.84-.03,1.53,1.16,3.13,2.29,4.52,1.14,1.4,2.51,2.88,4.08,3.31,1.36,.37,3.01,.13,5.19-.76,1.67-.67,3.47-1.56,4.25-2.99,.72-1.34,.6-3.32,.39-5.41-.18-1.83-.51-3.69-1.64-4.82-1.34-1.34-3.78-1.73-5.5-1.91-.71-.07-1.45-.13-2.17-.13Z" fill="#3c1053"/><path d="M217.55,235.4c-2.88,0-5.86-2.92-5.86-5.8,0-3.79,1.06-3.79,1.06-7.58s.07-3.79,.07-7.58c0-2.88,1.85-5.35,4.74-5.35s5.14,2.47,5.14,5.35c0,3.79,.08,3.79,.08,7.58s.54,3.79,.54,7.58c0,2.88-2.88,5.8-5.76,5.8Z" fill="#fff"/><path d="M282.35,234.49c-2.88,0-5.47-2.01-5.47-4.89,0-3.79,.3-3.79,.3-7.58s-.36-3.79-.36-7.58c0-2.88,2.65-5.14,5.53-5.14s4.87,2.26,4.87,5.14c0,3.79,.49,3.79,.49,7.58s.33,3.79,.33,7.58c0,2.88-2.81,4.89-5.69,4.89Z" fill="#fff"/><path d="M241.8,255.44c-2.88,0-4.98-2.31-4.98-5.19s2.1-4.88,4.98-4.88c3.74,0,4.32-.85,4.32-4.59,0-3.31-.18-3.31-.18-6.63s.78-3.32,.78-6.63-.83-3.32-.83-6.64,.27-3.32,.27-6.64c0-2.88,2.23-4.81,5.11-4.81s5.79,1.93,5.79,4.81c0,3.31,.11,3.31,.11,6.63s-.39,3.32-.39,6.63-.35,3.32-.35,6.64,.73,3.32,.73,6.64c0,3-1.05,5.64-2.06,7.76-1.18,2.46-2.88,4.84-5.33,6.01-2.11,1.01-4.98,.89-7.98,.89Z" fill="#fff"/><path d="M248.24,283.56c-2.33,0-4.68,.12-6.98-.21s-4.74-.49-6.94-1.15-4.38-1.86-6.41-2.9-4.19-2.27-5.95-3.73c-2.21-1.84-2.37-5.41-.52-7.62,1.84-2.21,5.43-2.77,7.65-.93,1.68,1.4,3.17,3.54,5.4,4.44,2.05,.83,4.63,.42,6.96,.82s4.48,.65,6.79,.65,4.67,.32,6.89-.07,4.36-1.67,6.41-2.5c2.23-.9,4.76-1.23,6.44-2.63,2.22-1.85,5.11-1.93,6.95,.28,1.84,2.21,1.61,5.5-.6,7.34-1.76,1.46-3.88,2.45-5.99,3.52s-4.07,2.17-6.34,2.85-4.58,.49-6.91,.82-4.53,.99-6.87,.99Z" fill="#fff"/><path d="M185.44,205.36c-2.2,1.39-3.88,1.91-5.41,1.93s-3.1-.67-5.31-2.07c-2.78-1.76,.29-3.45,.29-6.75s-.8-3.29-.8-6.59c0-2.73,1.19-5.19,1.56-7.51,.43-2.71,.02-5.51,.97-7.66,1.07-2.44,3.43-3.96,5.17-5.7s3.56-3.43,6-4.5c2.15-.94,4.66-1.21,7.36-1.64,2.32-.37,4.78-.47,7.51-.47,3.29,0,3.29-.07,6.59-.07s5.16-3.38,6.92-.6c1.41,2.24,1.99,3.9,1.86,5.37s-1.6,2.59-2.98,4.77c-1.76,2.78-2.51-.26-5.8-.26s-3.29,.88-6.59,.88c-2.81,0-5.17,.34-7.22,.76-2.78,.58-5.45,.84-7.02,2.4s-2.34,4.13-2.92,6.91c-.43,2.05-.96,4.51-.96,7.32,0,3.29-.18,3.38,.61,6.58,.87,3.54,2.96,5.13,.17,6.89Z" fill="#fff"/><path d="M215.99,310.82c-1.76,2.78-3.34,.49-6.63,.49s-3.29-1.13-6.59-1.13c-2.73,0-5.35,1-7.67,.63-2.71-.43-5.24-1.23-7.4-2.18-2.44-1.07-3.94-3.31-5.68-5.05s-3.56-3.43-4.63-5.87c-.94-2.15-1.39-4.63-1.82-7.33-.37-2.32-.7-4.81-.7-7.54,0-3.29,.1-3.29,.1-6.59s-3.3-5.4-.52-7.16c2.24-1.41,3.98-2.22,5.53-2.06s3.08,1.29,5.25,2.66c2.78,1.76-.44,3.27-.44,6.56s1.02,3.29,1.02,6.59c0,2.81-.41,5.23,.02,7.28,.58,2.78,1.63,4.9,3.2,6.47s3.75,2.31,6.53,2.9c2.05,.43,4.4,.69,7.21,.69,3.29,0,3.29,.43,6.59,.43s4.07-2.41,6.84-.63c2.45,1.57,2.64,3.29,2.3,5.22-.31,1.73-1.2,3.55-2.51,5.63Z" fill="#fff"/><path d="M293.72,311.13c-3.29,0-3.29-.02-6.59-.02-3.29,0-4.73,2.41-6.49-.38-1.4-2.22-1.59-3.66-1.54-5.11s.71-2.65,2.1-4.84c1.76-2.78,2.63-.21,5.92-.21s3.29-.07,6.59-.07c2.81,0,5.39,.48,7.44,.05,2.78-.58,4.95-2.18,6.52-3.75s2.89-3.8,3.47-6.58c.43-2.05-.25-4.57-.25-7.38,0-3.29,.11-3.29,.11-6.59s-2.57-4.86,.22-6.61c2.21-1.39,3.75-1.52,5.23-1.52s3.09,.03,5.3,1.42c2.78,1.76-.31,3.42-.31,6.71s.3,3.29,.3,6.59c0,2.73-.83,5.16-1.2,7.48-.43,2.71-1.09,4.99-2.03,7.14-1.07,2.44-1.93,4.75-3.68,6.49s-3.98,2.78-6.42,3.85c-2.15,.94-4.5,1.45-7.21,1.88-2.32,.37-4.75,1.44-7.48,1.44Z" fill="#fff"/><path d="M321.61,204.97c-2.2,1.39-3.57,2.76-5.16,2.78s-3.28-.85-5.49-2.24c-2.78-1.76-.39-3.73-.39-7.03s.34-3.29,.34-6.59c0-2.81-.09-5.18-.51-7.22-.58-2.78-1.52-4.81-3.08-6.37s-3.46-3.15-6.24-3.73c-2.05-.43-4.54,.37-7.36,.37-3.29,0-3.29-.59-6.59-.59s-5.08,2.97-6.84,.18c-1.41-2.23-2.6-3.76-2.49-5.34s1.55-2.95,2.93-5.13c1.76-2.78,3.11-.14,6.4-.14s3.29,.77,6.59,.77c2.73,0,5.16,.03,7.48,.4,2.71,.43,5.07,.89,7.22,1.84,2.44,1.07,4.99,1.79,6.73,3.54s3.33,3.92,4.39,6.36c.94,2.15,1.83,4.68,2.26,7.39,.37,2.32,.43,4.95,.43,7.68,0,3.29-1.35,3.39-.55,6.58,.92,3.63,2.7,4.73-.08,6.49Z" fill="#fff"/><path d="M425.42,469.42c-2.86,0-2.86-.35-5.73-.35s-2.86-.41-5.73-.41-2.86,.46-5.73,.46-2.86,.27-5.73,.27-2.86-.71-5.73-.71-2.86,.47-5.73,.47-2.86-.35-5.73-.35-2.86,.65-5.73,.65-2.86-.6-5.73-.6-2.86,.26-5.73,.26-2.86-.08-5.73-.08-2.86-.14-5.73-.14-2.86,.25-5.73,.25-2.86-.45-5.73-.45-2.86,.42-5.73,.42-2.87-.12-5.73-.12-2.86,.35-5.73,.35-2.86-.14-5.73-.14-2.86,.07-5.73,.07-2.87-.41-5.73-.41-2.86,.01-5.73,.01-2.86,.42-5.73,.42-2.87-.31-5.73-.31-2.87-.11-5.73-.11-2.86-.06-5.73-.06-2.86-.04-5.73-.04-2.87,.32-5.73,.32-2.86-.06-5.73-.06-2.86-.1-5.73-.1-2.86,.3-5.73,.3-2.86-.43-5.73-.43-2.86,.59-5.73,.59-2.86-.53-5.73-.53-2.87,.28-5.73,.28-2.86-.02-5.73-.02-2.86,.32-5.73,.32-2.86-.57-5.73-.57-2.87,.14-5.73,.14-2.86-.03-5.73-.03-2.86-.27-5.73-.27-2.87,.25-5.73,.25-2.86,.06-5.73,.06-2.87-.13-5.73-.13-2.87-.03-5.73-.03-2.87,.24-5.73,.24-2.87,.12-5.73,.12-2.87-.06-5.73-.06-2.87-.07-5.73-.07-2.87,.13-5.73,.13-2.87-.15-5.73-.15-2.87-.43-5.73-.43-2.87,.8-5.73,.8-2.87-.79-5.73-.79-2.86,.52-5.73,.52-2.87-.41-5.73-.41-2.87,.24-5.73,.24-2.87,.03-5.73,.03-2.87-.28-5.73-.28-2.87,.68-5.74,.68-2.87-.48-5.73-.48-2.87,.44-5.74,.44-2.87-.37-5.74-.37-2.87-.09-5.74-.09c-1.33,0-2.25-.97-2.25-2.3s.93-2.74,2.25-2.74c2.86,0,2.86,.6,5.73,.6s2.86-.01,5.73-.01,2.86-.12,5.73-.12,2.86-.35,5.73-.35,2.86,.6,5.73,.6,2.86-.56,5.73-.56,2.86,.23,5.73,.23,2.86-.18,5.73-.18,2.86,.26,5.73,.26,2.86-.06,5.73-.06,2.86-.34,5.73-.34,2.86,.39,5.73,.39,2.86-.18,5.73-.18,2.86,.23,5.73,.23,2.86-.01,5.73-.01,2.87-.49,5.73-.49,2.86,.39,5.73,.39,2.86,.17,5.73,.17,2.86-.2,5.73-.2,2.87-.33,5.73-.33,2.86,.06,5.73,.06,2.86-.12,5.73-.12,2.87,.64,5.73,.64,2.87-.01,5.73-.01,2.86-.57,5.73-.57,2.86,.34,5.73,.34,2.87-.41,5.73-.41,2.86,.45,5.73,.45,2.86-.26,5.73-.26,2.86,.36,5.73,.36,2.86-.33,5.73-.33,2.86,.08,5.73,.08,2.86,.19,5.73,.19,2.87-.1,5.73-.1,2.86,.27,5.73,.27,2.86,0,5.73,0,2.86-.69,5.73-.69,2.87,0,5.73,0,2.86,.05,5.73,.05,2.86,.72,5.73,.72,2.87-.33,5.73-.33,2.86-.31,5.73-.31,2.87,.15,5.73,.15,2.87,.39,5.73,.39,2.87,.07,5.73,.07,2.87-.75,5.73-.75,2.87,.75,5.73,.75,2.87-.39,5.73-.39,2.87,.04,5.73,.04,2.87-.1,5.73-.1,2.87-.22,5.73-.22,2.87,.12,5.73,.12,2.87,.11,5.73,.11,2.86,.42,5.73,.42,2.87-.37,5.73-.37,2.87-.14,5.73-.14,2.87,.07,5.73,.07,2.87,0,5.73,0,2.87,.19,5.74,.19,2.87-.22,5.73-.22,2.87,.42,5.74,.42,2.87-.16,5.74-.16,2.87,0,5.74,0c1.33,0,2.37,.92,2.37,2.25s-1.04,2.76-2.37,2.76Z" fill="#3c1053"/><path d="M448.58,468.72c-2.83,0-2.83,.57-5.65,.57s-2.83-.16-5.65-.16c-1.33,0-2.58-1.14-2.58-2.46s1.25-2.14,2.58-2.14c2.83,0,2.83-.03,5.65-.03s2.83,0,5.65,0c1.33,0,2.13,.86,2.13,2.18s-.8,2.05-2.13,2.05Z" fill="#3c1053"/></svg>